<?xml version="1.0"?>
<svg xmlns="http://www.w3.org/2000/svg" id="outline" viewBox="0 0 512 512" width="512" height="512"><path d="M488,96H464a64.07239,64.07239,0,0,0-64,64v48a47.7703,47.7703,0,0,1-2.7522,16h-17.553A31.792,31.792,0,0,0,384,208a8.00008,8.00008,0,0,0-8-8H360V136a8.00008,8.00008,0,0,0-8-8H248a8.00008,8.00008,0,0,0-8,8v64H224a8.00008,8.00008,0,0,0-8,8,31.792,31.792,0,0,0,4.30518,16H192V184h32V168H32V32H272v80h16V24a8.00008,8.00008,0,0,0-8-8H24a8.00008,8.00008,0,0,0-8,8V176a8.00008,8.00008,0,0,0,8,8h88v40H24a8.00008,8.00008,0,0,0-8,8v32a8.00008,8.00008,0,0,0,8,8H48v31.30859L16.11816,486.62891A8,8,0,0,0,24,496H40a7.99973,7.99973,0,0,0,7.74072-5.98047L60.78931,440h54.42138l13.04859,50.01953A7.99973,7.99973,0,0,0,136,496h16a8,8,0,0,0,7.88184-9.37109L128,303.30859V272H304.05542A79.92674,79.92674,0,0,0,272,336v16a8.00008,8.00008,0,0,0,8,8h15.00354L280.05469,487.06543A8,8,0,0,0,288,496h16a7.99967,7.99967,0,0,0,7.6748-5.74316L331.376,423.273,384,403.0332,436.62378,423.273l19.70142,66.98486A8,8,0,0,0,464,496h16a8,8,0,0,0,7.94531-8.93457L471.39453,346.38281A63.906,63.906,0,0,0,496,296V104A8.00008,8.00008,0,0,0,488,96ZM256,144h88v56H256Zm-21.85254,72H365.85254A16.008,16.008,0,0,1,352,224H248A16.008,16.008,0,0,1,234.14746,216ZM128,184h16v16a8,8,0,0,0,16,0V184h16v40H128ZM33.81934,480h-.30811L62.729,312H77.64551Zm31.14379-56L88,335.69238,111.03687,424Zm77.21753,56L98.35449,312H113.271l29.21777,168ZM112,296H64V272h48ZM32,256V240H387.73877A47.88649,47.88649,0,0,1,352,256ZM298.01416,480h-1.01758L311.114,360h22.19446Zm120-120,3.384,11.50635L384,385.89014l-37.39844-14.38428L349.9856,360ZM337.061,403.94336l5.01086-17.03662,19.64233,7.55469Zm69.22473-9.48193,19.64209-7.55469,5.01074,17.03662ZM471.00391,480h-1.01807L434.67163,359.93213a63.55558,63.55558,0,0,0,21.64819-4.74512ZM480,296a48.054,48.054,0,0,1-48,48H288v-8a64.07239,64.07239,0,0,1,64-64,64.07239,64.07239,0,0,0,64-64V160a48.054,48.054,0,0,1,48-48h16Z"/></svg>
